<svg width="180" height="44" viewBox="0 0 180 44" fill="none" xmlns="http://www.w3.org/2000/svg">
<g clip-path="url(#clip0_787_74880)">
<path d="M65.9056 24.1934H60.443L59.4173 27.2387H56.1787L61.4693 12.429H64.9693L70.2201 27.2387H66.8638L65.9056 24.1934ZM65.0402 21.6413L63.1891 15.8141L61.2781 21.6413H65.0402ZM81.0634 17.4616C81.9485 18.4059 82.391 19.7924 82.391 21.6213C82.391 23.5502 81.9554 25.0205 81.084 26.0321C80.677 26.5225 80.1637 26.9139 79.5831 27.1767C79.0025 27.4394 78.3697 27.5667 77.7326 27.5489C76.9561 27.5784 76.1918 27.3488 75.5602 26.8961C75.1947 26.5989 74.8817 26.2425 74.6343 25.8416V31.5511H71.7981V16.286H74.5442V17.9039C74.8089 17.4775 75.1417 17.0974 75.5293 16.7785C76.1825 16.2844 76.9838 16.0259 77.8027 16.0452C78.4157 16.0361 79.0235 16.1577 79.5858 16.4019C80.148 16.6462 80.6517 17.0074 81.0634 17.4616ZM79.4331 21.7617C79.4485 20.9755 79.2469 20.2002 78.8504 19.5212C78.6601 19.2007 78.3842 18.9397 78.0536 18.7675C77.7231 18.5953 77.351 18.5187 76.9793 18.5464C76.5094 18.5217 76.0444 18.6532 75.6569 18.9203C75.2695 19.1875 74.9813 19.5753 74.8372 20.0233C74.6169 20.6627 74.5146 21.3368 74.5352 22.0127C74.5352 23.2853 74.8739 24.1796 75.5513 24.6955C75.964 25.0003 76.4664 25.1593 76.9793 25.1475C77.3371 25.1652 77.6932 25.0892 78.0126 24.9271C78.3319 24.7649 78.6034 24.5222 78.8002 24.223C79.2556 23.4855 79.4765 22.6273 79.4338 21.7617H79.4331ZM93.6567 17.4616C94.5418 18.4059 94.9841 19.7924 94.9837 21.6213C94.9837 23.5502 94.548 25.0205 93.6767 26.0321C93.2698 26.5221 92.7568 26.9133 92.1766 27.1761C91.5964 27.4388 90.964 27.5663 90.3273 27.5489C89.5506 27.578 88.7863 27.3484 88.1542 26.8961C87.7892 26.5987 87.4765 26.2422 87.229 25.8416V31.5511H84.3928V16.286H87.1389V17.9039C87.4036 17.4775 87.7364 17.0974 88.124 16.7785C88.7772 16.2842 89.5786 16.0257 90.3975 16.0452C91.0103 16.0362 91.618 16.1578 92.1801 16.4021C92.7422 16.6463 93.2458 17.0075 93.6574 17.4616H93.6567ZM92.0264 21.7617C92.0418 20.9753 91.8397 20.2 91.4424 19.5212C91.2523 19.2007 90.9765 18.9396 90.646 18.7674C90.3156 18.5952 89.9436 18.5186 89.572 18.5464C89.102 18.5217 88.637 18.6532 88.2496 18.9203C87.8621 19.1875 87.5739 19.5753 87.4299 20.0233C87.2095 20.6627 87.1072 21.3368 87.1279 22.0127C87.1279 23.2853 87.4666 24.1796 88.1439 24.6955C88.5566 25.0004 89.059 25.1594 89.572 25.1475C89.9297 25.1651 90.2858 25.089 90.6051 24.9269C90.9244 24.7647 91.196 24.5221 91.3929 24.223C91.8485 23.4856 92.0697 22.6274 92.0271 21.7617H92.0264ZM95.9894 16.286H99.208L101.491 24.364L103.825 16.286H106.904L102.952 27.2387H99.9248L95.9894 16.286ZM117.917 24.0221C117.794 24.7718 117.439 25.4639 116.902 26.0012C116.404 26.542 115.791 26.9658 115.11 27.2419C114.428 27.5181 113.694 27.6399 112.959 27.5985C111.606 27.6137 110.293 27.1351 109.267 26.2523C108.201 25.3548 107.668 23.8946 107.668 21.8717C107.56 20.2862 108.077 18.7215 109.106 17.5111C109.59 17.0084 110.174 16.6135 110.82 16.3521C111.467 16.0907 112.161 15.9688 112.858 15.9943C113.707 15.9812 114.549 16.1563 115.322 16.5068C116.068 16.8619 116.696 17.4234 117.133 18.1247C117.574 18.8075 117.859 19.5794 117.968 20.3852C118.052 21.1054 118.082 21.8308 118.058 22.5555H110.556C110.528 22.9958 110.608 23.4362 110.788 23.8387C110.969 24.2413 111.244 24.5939 111.592 24.8661C112.013 25.1487 112.512 25.293 113.02 25.2789C113.546 25.3017 114.061 25.122 114.458 24.7767C114.683 24.5615 114.864 24.3045 114.991 24.02L117.917 24.0221ZM115.085 20.6665C115.087 20.0247 114.838 19.4076 114.391 18.9468C114.189 18.7511 113.949 18.5979 113.687 18.4961C113.424 18.3943 113.144 18.3459 112.863 18.3538C112.575 18.3375 112.286 18.3849 112.019 18.4926C111.751 18.6003 111.51 18.7657 111.314 18.977C110.923 19.4594 110.685 20.0471 110.63 20.6651L115.085 20.6665ZM125.164 18.4061C124.742 18.3735 124.321 18.4759 123.961 18.6985C123.601 18.9211 123.321 19.2523 123.162 19.6443C122.957 20.1758 122.861 20.7432 122.881 21.3125V27.2387H120.023V16.3066H122.79V17.9039C123.069 17.4437 123.423 17.0329 123.836 16.6884C124.49 16.2265 125.279 15.9934 126.079 16.0253C127.081 15.982 128.066 16.2992 128.854 16.9195C129.579 17.5088 129.941 18.49 129.941 19.8631V27.2387H127.004V20.5764C127.027 20.1226 126.948 19.6695 126.773 19.2501C126.619 18.965 126.383 18.7323 126.096 18.5819C125.809 18.4315 125.483 18.3703 125.161 18.4061H125.164ZM137.615 25.1977V27.3378L136.256 27.388C134.902 27.4338 133.977 27.1995 133.48 26.6849C133.126 26.2625 132.953 25.7174 132.999 25.1681V18.4267H131.469V16.3864H132.999V13.3322H135.835V16.3864H137.616V18.426H135.832V24.2119C135.794 24.5046 135.855 24.8017 136.004 25.056C136.331 25.2059 136.693 25.2616 137.05 25.217H137.325L137.615 25.1977ZM146.489 25.6902C146.462 25.7237 146.395 25.8241 146.288 25.9915C146.183 26.1567 146.054 26.3058 145.906 26.4339C145.529 26.7919 145.084 27.0723 144.599 27.2593C144.125 27.4157 143.629 27.4904 143.13 27.4801C141.508 27.4801 140.415 26.8975 139.851 25.7322C139.489 24.8301 139.327 23.8599 139.378 22.8891V16.2853H142.316V22.8891C142.291 23.3683 142.366 23.8475 142.537 24.2959C142.678 24.5754 142.901 24.8051 143.176 24.9541C143.451 25.1032 143.765 25.1644 144.076 25.1296C144.493 25.1659 144.911 25.0712 145.272 24.8587C145.632 24.6463 145.918 24.3267 146.088 23.9444C146.296 23.4032 146.391 22.8257 146.37 22.2466V16.286H149.274V27.2387H146.487L146.489 25.6902ZM157.564 18.9282C156.41 18.9282 155.635 19.3033 155.24 20.0536C154.982 20.6693 154.868 21.336 154.908 22.0024V27.2387H152.019V16.286H154.754V18.1949C155.059 17.6384 155.45 17.1333 155.911 16.698C156.505 16.2298 157.248 15.9907 158.003 16.0246C158.047 16.0238 158.091 16.0273 158.135 16.0349C158.175 16.0349 158.259 16.0349 158.386 16.0452V18.9791C158.206 18.9592 158.043 18.9454 157.905 18.9392C157.767 18.933 157.646 18.9289 157.56 18.9289L157.564 18.9282ZM169.464 24.0221C169.341 24.7719 168.986 25.4642 168.448 26.0012C167.95 26.5421 167.338 26.9658 166.656 27.242C165.975 27.5182 165.24 27.6399 164.506 27.5985C163.153 27.6137 161.84 27.1351 160.814 26.2523C159.748 25.3548 159.215 23.8946 159.215 21.8717C159.108 20.2864 159.623 18.7219 160.652 17.5111C161.136 17.0083 161.72 16.6133 162.367 16.3519C163.013 16.0905 163.708 15.9687 164.405 15.9943C165.254 15.9812 166.095 16.1563 166.869 16.5068C167.615 16.8619 168.243 17.4234 168.679 18.1247C169.121 18.8075 169.406 19.5794 169.515 20.3852C169.599 21.1054 169.629 21.8308 169.605 22.5555H162.096C162.069 22.9958 162.149 23.4362 162.329 23.8387C162.509 24.2413 162.785 24.5939 163.132 24.8661C163.554 25.1487 164.053 25.293 164.56 25.2789C165.086 25.3017 165.601 25.122 165.999 24.7767C166.224 24.5615 166.405 24.3045 166.532 24.02L169.464 24.0221ZM166.627 20.6665C166.63 20.0247 166.381 19.4076 165.934 18.9468C165.732 18.7512 165.492 18.598 165.23 18.4962C164.967 18.3944 164.687 18.346 164.406 18.3538C164.117 18.3375 163.829 18.3849 163.561 18.4926C163.294 18.6003 163.053 18.7657 162.856 18.977C162.466 19.4593 162.228 20.047 162.172 20.6651L166.627 20.6665ZM180 27.2387H170.535V25.0072L176.158 18.6173H170.917V16.286H179.81V18.6675L174.245 24.8868H179.998L180 27.2387Z" fill="white"/>
<path d="M48.6509 31.1617C50.3418 34.8399 49.6016 39.5403 46.3258 42.0945C44.5245 43.4952 42.2553 44.1532 39.9841 43.9332C34.8056 43.4221 31.0009 38.2106 32.1634 33.3066C32.5858 31.4672 33.8543 30.0377 34.4885 28.3001C34.607 28.0788 34.6789 27.8355 34.6997 27.5854C35.1572 26.4113 35.4074 25.1668 35.4392 23.9072C35.4607 23.428 35.4251 22.9479 35.3332 22.477C35.3141 22.0612 35.2432 21.6494 35.1221 21.2512C35.0161 20.9444 34.9104 20.6378 34.8049 20.3315C34.024 18.3137 32.6417 16.5847 30.8452 15.3788C29.0487 14.1729 26.9249 13.5485 24.7616 13.5901C22.6029 13.5693 20.4883 14.2021 18.6958 15.4052C16.9034 16.6084 15.5168 18.3257 14.7183 20.3315C14.6124 20.6388 14.5067 20.9453 14.4012 21.2512C14.2796 21.6493 14.2086 22.0612 14.19 22.477C14.1021 22.9484 14.0665 23.428 14.0841 23.9072C14.0537 25.173 14.3064 26.4296 14.8236 27.5854C14.9295 27.7917 14.9295 28.0965 15.0348 28.3001C15.6683 30.037 16.9368 31.569 17.3599 33.3066C18.5217 38.2106 14.6124 43.4221 9.53915 43.9332C7.27043 44.153 5.00357 43.4968 3.20293 42.0993C-0.0735226 39.5431 -0.813012 34.8427 0.877839 31.1617C1.30021 30.242 10.4946 15.5293 14.6172 9.19375C15.993 7.15069 17.2587 5.00445 18.7384 3.1657C19.0555 2.8589 19.372 2.45098 19.6891 2.14349C20.3481 1.46447 21.1366 0.924639 22.0081 0.556001C22.8795 0.187363 23.8161 -0.00258532 24.7623 -0.00258532C25.7085 -0.00258532 26.6451 0.187363 27.5166 0.556001C28.388 0.924639 29.1766 1.46447 29.8356 2.14349C30.1775 2.46006 30.4953 2.80175 30.7862 3.1657C32.2907 5.08246 33.6674 7.09616 34.9074 9.19375C39.0286 15.6338 48.2217 30.2448 48.6468 31.1617H48.6509ZM46.1147 6.53502C45.4728 6.51328 44.8515 6.30306 44.3284 5.9306C43.8052 5.55813 43.4032 5.03988 43.1726 4.44049C42.942 3.8411 42.8929 3.18708 43.0315 2.55999C43.1701 1.9329 43.4903 1.36049 43.9521 0.91414C44.4138 0.467786 44.9967 0.167241 45.6282 0.0499806C46.2596 -0.0672793 46.9116 0.00393527 47.5028 0.254744C48.094 0.505553 48.5984 0.924858 48.9529 1.46037C49.3074 1.99589 49.4964 2.62391 49.4964 3.26614C49.4953 3.70493 49.4062 4.13906 49.2346 4.54288C49.0629 4.94669 48.812 5.31201 48.4968 5.61724C48.1815 5.92248 47.8083 6.16144 47.3992 6.32002C46.99 6.4786 46.5533 6.55358 46.1147 6.54053V6.53502Z" fill="white"/>
</g>
<defs>
<clipPath id="clip0_787_74880">
<rect width="180" height="43.9745" fill="white"/>
</clipPath>
</defs>
</svg>
