<svg width="20" height="20" viewBox="0 0 20 20" fill="none" xmlns="http://www.w3.org/2000/svg">
<g clip-path="url(#clip0_787_74866)">
<path d="M1.66699 10C1.66699 6.07167 1.66699 4.10751 2.88699 2.88667C4.10866 1.66667 6.07199 1.66667 10.0003 1.66667C13.9287 1.66667 15.8928 1.66667 17.1128 2.88667C18.3337 4.10834 18.3337 6.07167 18.3337 10C18.3337 13.9283 18.3337 15.8925 17.1128 17.1125C15.8937 18.3333 13.9287 18.3333 10.0003 18.3333C6.07199 18.3333 4.10783 18.3333 2.88699 17.1125C1.66699 15.8933 1.66699 13.9283 1.66699 10Z" stroke="white" strokeWidth="1.5"/>
<path d="M5 13.1667L5.9525 14.1667L8.33333 11.6667M5 7.33334L5.9525 8.33334L8.33333 5.83334" stroke="white" strokeWidth="1.5" strokeLinecap="round" strokeLinejoin="round"/>
<path d="M10.834 7.5H15.0007M10.834 13.3333H15.0007" stroke="white" strokeWidth="1.5" strokeLinecap="round"/>
</g>
<defs>
<clipPath id="clip0_787_74866">
<rect width="20" height="20" fill="white"/>
</clipPath>
</defs>
</svg>
