<svg width="20" height="20" viewBox="0 0 20 20" fill="none" xmlns="http://www.w3.org/2000/svg">
<path d="M3.33301 15.8333V4.16667C3.33301 3.72464 3.5086 3.30072 3.82116 2.98816C4.13372 2.67559 4.55765 2.5 4.99967 2.5H16.1663C16.2989 2.5 16.4261 2.55268 16.5199 2.64645C16.6137 2.74021 16.6663 2.86739 16.6663 3V13.9283M4.99967 14.1667H16.6663M4.99967 17.5H16.6663" stroke="white" strokeWidth="1.5" strokeLinecap="round"/>
<path d="M4.99967 17.5C4.55765 17.5 4.13372 17.3244 3.82116 17.0118C3.5086 16.6993 3.33301 16.2754 3.33301 15.8333C3.33301 15.3913 3.5086 14.9674 3.82116 14.6548C4.13372 14.3423 4.55765 14.1667 4.99967 14.1667" stroke="white" strokeWidth="1.5" strokeLinecap="round" strokeLinejoin="round"/>
<path d="M7.5 5.83334H12.5" stroke="white" strokeWidth="1.5" strokeLinecap="round"/>
</svg>
