<svg width="18" height="18" viewBox="0 0 18 18" fill="none" xmlns="http://www.w3.org/2000/svg">
<path d="M5.71401 10C5.51163 10 5.3421 9.93143 5.20544 9.79429C5.06877 9.65714 5.0002 9.48762 4.99972 9.28571C4.99972 9.08333 5.06829 8.91381 5.20544 8.77714C5.34258 8.64048 5.5121 8.5719 5.71401 8.57143C5.91639 8.57143 6.08615 8.64 6.22329 8.77714C6.36044 8.91429 6.42877 9.08381 6.42829 9.28571C6.42829 9.4881 6.35972 9.65786 6.22258 9.795C6.08543 9.93214 5.91591 10.0005 5.71401 10ZM8.57115 10C8.36877 10 8.19924 9.93143 8.06258 9.79429C7.92591 9.65714 7.85734 9.48762 7.85686 9.28571C7.85686 9.08333 7.92544 8.91381 8.06258 8.77714C8.19972 8.64048 8.36924 8.5719 8.57115 8.57143C8.77353 8.57143 8.94329 8.64 9.08044 8.77714C9.21758 8.91429 9.28591 9.08381 9.28543 9.28571C9.28543 9.4881 9.21686 9.65786 9.07972 9.795C8.94258 9.93214 8.77305 10.0005 8.57115 10ZM11.4283 10C11.2259 10 11.0564 9.93143 10.9197 9.79429C10.7831 9.65714 10.7145 9.48762 10.714 9.28571C10.714 9.08333 10.7826 8.91381 10.9197 8.77714C11.0569 8.64048 11.2264 8.5719 11.4283 8.57143C11.6307 8.57143 11.8004 8.64 11.9376 8.77714C12.0747 8.91429 12.1431 9.08381 12.1426 9.28571C12.1426 9.4881 12.074 9.65786 11.9369 9.795C11.7997 9.93214 11.6302 10.0005 11.4283 10ZM3.57115 15.7143C3.17829 15.7143 2.8421 15.5745 2.56258 15.295C2.28305 15.0155 2.14305 14.679 2.14258 14.2857V4.28571C2.14258 3.89286 2.28258 3.55667 2.56258 3.27714C2.84258 2.99762 3.17877 2.85762 3.57115 2.85714H4.28544V1.42857H5.71401V2.85714H11.4283V1.42857H12.8569V2.85714H13.5711C13.964 2.85714 14.3004 2.99714 14.5804 3.27714C14.8604 3.55714 15.0002 3.89333 14.9997 4.28571V14.2857C14.9997 14.6786 14.86 15.015 14.5804 15.295C14.3009 15.575 13.9645 15.7148 13.5711 15.7143H3.57115ZM3.57115 14.2857H13.5711V7.14286H3.57115V14.2857ZM3.57115 5.71429H13.5711V4.28571H3.57115V5.71429Z" fill="white"/>
</svg>
