<svg width="20" height="21" viewBox="0 0 20 21" fill="none" xmlns="http://www.w3.org/2000/svg">
<path d="M3.33301 15.5013C3.33301 14.6172 3.6842 13.7694 4.30932 13.1443C4.93444 12.5192 5.78229 12.168 6.66634 12.168H13.333C14.2171 12.168 15.0649 12.5192 15.69 13.1443C16.3152 13.7694 16.6663 14.6172 16.6663 15.5013C16.6663 15.9433 16.4907 16.3673 16.1782 16.6798C15.8656 16.9924 15.4417 17.168 14.9997 17.168H4.99967C4.55765 17.168 4.13372 16.9924 3.82116 16.6798C3.5086 16.3673 3.33301 15.9433 3.33301 15.5013Z" stroke="white" strokeWidth="1.5" strokeLinejoin="round"/>
<path d="M10 8.83398C11.3807 8.83398 12.5 7.7147 12.5 6.33398C12.5 4.95327 11.3807 3.83398 10 3.83398C8.61929 3.83398 7.5 4.95327 7.5 6.33398C7.5 7.7147 8.61929 8.83398 10 8.83398Z" stroke="white" strokeWidth="1.5"/>
</svg>
