<svg width="20" height="20" viewBox="0 0 20 20" fill="none" xmlns="http://www.w3.org/2000/svg">
<g clip-path="url(#clip0_787_74753)">
<path d="M5.44455 10.4444H14.5557V12.1555H15.4446V9.55555H10.4446V7.77777H9.55567V9.55555H4.55566V12.1555H5.44455V10.4444Z" fill="white"/>
<path d="M7.77799 12.7778H2.22244C1.92775 12.7778 1.64514 12.8948 1.43676 13.1032C1.22839 13.3116 1.11133 13.5942 1.11133 13.8889V17.2222C1.11133 17.5169 1.22839 17.7995 1.43676 18.0079C1.64514 18.2163 1.92775 18.3333 2.22244 18.3333H7.77799C8.07268 18.3333 8.35529 18.2163 8.56367 18.0079C8.77204 17.7995 8.88911 17.5169 8.88911 17.2222V13.8889C8.88911 13.5942 8.77204 13.3116 8.56367 13.1032C8.35529 12.8948 8.07268 12.7778 7.77799 12.7778ZM2.22244 17.2222V13.8889H7.77799V17.2222H2.22244Z" fill="white"/>
<path d="M17.778 12.7778H12.2224C11.9278 12.7778 11.6451 12.8948 11.4368 13.1032C11.2284 13.3116 11.1113 13.5942 11.1113 13.8889V17.2222C11.1113 17.5169 11.2284 17.7995 11.4368 18.0079C11.6451 18.2163 11.9278 18.3333 12.2224 18.3333H17.778C18.0727 18.3333 18.3553 18.2163 18.5637 18.0079C18.772 17.7995 18.8891 17.5169 18.8891 17.2222V13.8889C18.8891 13.5942 18.772 13.3116 18.5637 13.1032C18.3553 12.8948 18.0727 12.7778 17.778 12.7778ZM12.2224 17.2222V13.8889H17.778V17.2222H12.2224Z" fill="white"/>
<path d="M7.22244 7.22223H12.778C13.0727 7.22223 13.3553 7.10516 13.5637 6.89679C13.772 6.68842 13.8891 6.4058 13.8891 6.11112V2.77778C13.8891 2.4831 13.772 2.20048 13.5637 1.99211C13.3553 1.78373 13.0727 1.66667 12.778 1.66667H7.22244C6.92775 1.66667 6.64514 1.78373 6.43677 1.99211C6.22839 2.20048 6.11133 2.4831 6.11133 2.77778V6.11112C6.11133 6.4058 6.22839 6.68842 6.43677 6.89679C6.64514 7.10516 6.92775 7.22223 7.22244 7.22223ZM7.22244 2.77778H12.778V6.11112H7.22244V2.77778Z" fill="white"/>
</g>
<defs>
<clipPath id="clip0_787_74753">
<rect width="20" height="20" fill="white"/>
</clipPath>
</defs>
</svg>
