<svg width="20" height="20" viewBox="0 0 20 20" fill="none" xmlns="http://www.w3.org/2000/svg">
<path d="M4.99958 10H3.43708C2.93708 10 2.53125 10.4058 2.53125 10.9058V16.8025C2.53125 17.3025 2.93708 17.7083 3.43708 17.7083H4.99792C5.49792 17.7083 5.90375 17.3025 5.90375 16.8025V10.9058C5.90375 10.4058 5.49792 10 4.99792 10M10.7804 6.14583H9.21958C8.71958 6.14583 8.31375 6.55167 8.31375 7.05167V16.8025C8.31375 17.3025 8.71875 17.7083 9.21875 17.7083H10.7804C11.2804 17.7083 11.6863 17.3025 11.6863 16.8025V7.05167C11.6863 6.55167 11.2804 6.14583 10.7804 6.14583ZM16.5613 2.29167H15.0004C14.5004 2.29167 14.0946 2.6975 14.0946 3.1975V16.8025C14.0946 17.3025 14.5004 17.7083 15.0004 17.7083H16.5613C17.0613 17.7083 17.4671 17.3025 17.4671 16.8025V3.1975C17.4671 2.6975 17.0613 2.29167 16.5613 2.29167Z" stroke="white" stroke-width="1.3" stroke-linecap="round" stroke-linejoin="round"/>
</svg>
