<svg width="20" height="20" viewBox="0 0 20 20" fill="none" xmlns="http://www.w3.org/2000/svg">
<path d="M9.36623 8.99446C11.3483 8.99446 12.9551 7.38766 12.9551 5.40557C12.9551 3.42348 11.3483 1.81668 9.36623 1.81668C7.38414 1.81668 5.77734 3.42348 5.77734 5.40557C5.77734 7.38766 7.38414 8.99446 9.36623 8.99446Z" fill="white"/>
<path d="M11.667 15.5555H15.5559V16.3333H11.667V15.5555Z" fill="white"/>
<path d="M8.33326 16.6667V18.3333C8.33326 18.4807 8.39179 18.622 8.49597 18.7262C8.60016 18.8304 8.74147 18.8889 8.88881 18.8889H18.3333C18.4806 18.8889 18.6219 18.8304 18.7261 18.7262C18.8303 18.622 18.8888 18.4807 18.8888 18.3333V12.7778C18.8888 12.6304 18.8303 12.4891 18.7261 12.3849C18.6219 12.2808 18.4806 12.2222 18.3333 12.2222H14.4444V11.4056C14.4444 11.2582 14.3858 11.1169 14.2816 11.0127C14.1775 10.9085 14.0362 10.85 13.8888 10.85C13.7415 10.85 13.6002 10.9085 13.496 11.0127C13.3918 11.1169 13.3333 11.2582 13.3333 11.4056V12.2222H12.2221V10.2333C11.2781 10.0792 10.3232 10.0011 9.36659 10C7.25703 9.99103 5.17112 10.4442 3.25548 11.3278C2.94019 11.4766 2.6742 11.7127 2.48908 12.0081C2.30395 12.3035 2.20745 12.6458 2.21103 12.9945V16.6667H8.33326ZM17.7777 17.7778H9.44437V13.3333H13.3333V13.5667C13.3333 13.714 13.3918 13.8553 13.496 13.9595C13.6002 14.0637 13.7415 14.1222 13.8888 14.1222C14.0362 14.1222 14.1775 14.0637 14.2816 13.9595C14.3858 13.8553 14.4444 13.714 14.4444 13.5667V13.3333H17.7777V17.7778Z" fill="white"/>
</svg>
