<svg width="20" height="20" viewBox="0 0 20 20" fill="none" xmlns="http://www.w3.org/2000/svg">
<g clip-path="url(#clip0_787_74769)">
<path d="M10.0002 1.11111C8.24217 1.11111 6.52359 1.63244 5.06182 2.60916C3.60005 3.58589 2.46074 4.97414 1.78796 6.59837C1.11518 8.22261 0.93915 10.0099 1.28213 11.7341C1.62511 13.4584 2.47169 15.0423 3.71483 16.2854C4.95796 17.5285 6.54181 18.3751 8.26609 18.7181C9.99036 19.0611 11.7776 18.885 13.4019 18.2123C15.0261 17.5395 16.4143 16.4002 17.3911 14.9384C18.3678 13.4766 18.8891 11.7581 18.8891 10C18.8891 7.64252 17.9526 5.3816 16.2856 3.71461C14.6186 2.04762 12.3577 1.11111 10.0002 1.11111ZM10.0002 17.7778C8.46192 17.7778 6.95817 17.3216 5.67912 16.467C4.40007 15.6124 3.40317 14.3976 2.81449 12.9764C2.22581 11.5552 2.07178 9.99138 2.37189 8.48264C2.672 6.97389 3.41276 5.58803 4.5005 4.50028C5.58824 3.41254 6.97411 2.67178 8.48285 2.37167C9.99159 2.07157 11.5554 2.22559 12.9766 2.81427C14.3979 3.40296 15.6126 4.39985 16.4672 5.6789C17.3218 6.95795 17.778 8.4617 17.778 10C17.778 12.0628 16.9586 14.0411 15.4999 15.4997C14.0413 16.9583 12.063 17.7778 10.0002 17.7778Z" fill="white"/>
<path d="M10.5115 10.2222V5.97223C10.5115 5.82488 10.453 5.68358 10.3488 5.57939C10.2446 5.4752 10.1033 5.41667 9.95595 5.41667C9.8086 5.41667 9.6673 5.4752 9.56311 5.57939C9.45892 5.68358 9.40039 5.82488 9.40039 5.97223V10.8167L12.6782 13.0389C12.7385 13.0843 12.8076 13.1169 12.881 13.1348C12.9544 13.1526 13.0307 13.1553 13.1052 13.1426C13.1796 13.13 13.2508 13.1023 13.3142 13.0612C13.3776 13.0201 13.4319 12.9665 13.4739 12.9037C13.5159 12.8409 13.5447 12.7702 13.5584 12.6959C13.5721 12.6216 13.5706 12.5453 13.5538 12.4716C13.5371 12.398 13.5054 12.3285 13.4609 12.2675C13.4164 12.2064 13.3599 12.1551 13.2948 12.1167L10.5115 10.2222Z" fill="white"/>
<path d="M4.44429 9.96667C4.43921 8.96725 4.70545 7.98518 5.21464 7.12518C5.72382 6.26518 6.45686 5.55949 7.33559 5.08334C8.21431 4.6072 9.20578 4.37846 10.2043 4.42151C11.2028 4.46456 12.1709 4.77778 13.0054 5.32778L13.4776 4.57223C12.685 4.05301 11.7872 3.71578 10.8487 3.58478C9.91023 3.45378 8.9544 3.53225 8.04986 3.81456C7.14533 4.09687 6.31454 4.57601 5.61719 5.21756C4.91984 5.85911 4.37324 6.64714 4.01664 7.52505C3.66004 8.40295 3.50231 9.34894 3.55476 10.2951C3.60722 11.2412 3.86857 12.1639 4.32003 12.997C4.7715 13.8301 5.40187 14.5529 6.16587 15.1134C6.92987 15.674 7.80853 16.0583 8.73873 16.2389L8.88873 15.3889C7.63761 15.1335 6.51265 14.455 5.70318 13.4674C4.89371 12.4798 4.44914 11.2436 4.44429 9.96667Z" fill="white"/>
</g>
<defs>
<clipPath id="clip0_787_74769">
<rect width="20" height="20" fill="white"/>
</clipPath>
</defs>
</svg>
