<svg width="20" height="20" viewBox="0 0 20 20" fill="none" xmlns="http://www.w3.org/2000/svg">
<g clip-path="url(#clip0_787_74850)">
<path d="M7.5 7.8125V7.1875C7.5 6.7731 7.33538 6.37567 7.04235 6.08265C6.74933 5.78962 6.3519 5.625 5.9375 5.625C5.5231 5.625 5.12567 5.78962 4.83265 6.08265C4.53962 6.37567 4.375 6.7731 4.375 7.1875V7.8125C4.375 8.2269 4.53962 8.62433 4.83265 8.91735C5.12567 9.21038 5.5231 9.375 5.9375 9.375C6.3519 9.375 6.74933 9.21038 7.04235 8.91735C7.33538 8.62433 7.5 8.2269 7.5 7.8125ZM5 7.8125V7.1875C5 6.93886 5.09877 6.7004 5.27459 6.52459C5.4504 6.34877 5.68886 6.25 5.9375 6.25C6.18614 6.25 6.4246 6.34877 6.60041 6.52459C6.77623 6.7004 6.875 6.93886 6.875 7.1875V7.8125C6.875 8.06114 6.77623 8.2996 6.60041 8.47541C6.4246 8.65123 6.18614 8.75 5.9375 8.75C5.68886 8.75 5.4504 8.65123 5.27459 8.47541C5.09877 8.2996 5 8.06114 5 7.8125Z" fill="white"/>
<path d="M17.1875 20C17.2704 20 17.3499 19.9671 17.4085 19.9085C17.4671 19.8499 17.5 19.7704 17.5 19.6875V13.4375C17.5 13.3546 17.4671 13.2751 17.4085 13.2165C17.3499 13.1579 17.2704 13.125 17.1875 13.125H12.5V11.875H14.6875C14.7614 11.875 14.8329 11.8488 14.8894 11.801C14.9458 11.7532 14.9834 11.687 14.9956 11.6141L15.6206 7.86406C15.6281 7.81929 15.6258 7.77343 15.6137 7.72966C15.6017 7.68589 15.5803 7.64526 15.5509 7.61062C15.5216 7.57597 15.4851 7.54812 15.4439 7.52902C15.4027 7.50992 15.3579 7.50001 15.3125 7.5H9.6875C9.61357 7.50002 9.54205 7.52625 9.48564 7.57402C9.42922 7.6218 9.39157 7.68803 9.37937 7.76094L8.75437 11.5109C8.74688 11.5557 8.74924 11.6016 8.76127 11.6453C8.77331 11.6891 8.79473 11.7297 8.82406 11.7644C8.85338 11.799 8.8899 11.8269 8.93108 11.846C8.97226 11.8651 9.01711 11.875 9.0625 11.875H11.875V13.125H10.4513C10.5637 12.9358 10.6237 12.7201 10.625 12.5C10.625 12.4231 10.5966 12.3488 10.5453 12.2915C10.494 12.2342 10.4233 12.1978 10.3469 12.1894L7.65938 11.8909L6.1775 10.1125C6.14819 10.0773 6.11149 10.049 6.07002 10.0295C6.02854 10.0101 5.9833 10 5.9375 10H5.3125C4.89825 10.0005 4.50111 10.1653 4.20819 10.4582C3.91528 10.7511 3.7505 11.1483 3.75 11.5625V15.3125C3.75115 15.6517 3.86381 15.9811 4.07063 16.25H3.125V10.9375C3.125 10.8546 3.09208 10.7751 3.03347 10.7165C2.97487 10.6579 2.89538 10.625 2.8125 10.625C2.72962 10.625 2.65013 10.6579 2.59153 10.7165C2.53292 10.7751 2.5 10.8546 2.5 10.9375V16.5625C2.5 16.6454 2.53292 16.7249 2.59153 16.7835C2.65013 16.8421 2.72962 16.875 2.8125 16.875H4.375V19.375H3.4375C3.35462 19.375 3.27513 19.4079 3.21653 19.4665C3.15792 19.5251 3.125 19.6046 3.125 19.6875C3.125 19.7704 3.15792 19.8499 3.21653 19.9085C3.27513 19.9671 3.35462 20 3.4375 20H5.9375C6.02038 20 6.09987 19.9671 6.15847 19.9085C6.21708 19.8499 6.25 19.7704 6.25 19.6875C6.25 19.6046 6.21708 19.5251 6.15847 19.4665C6.09987 19.4079 6.02038 19.375 5.9375 19.375H5V16.875H7.31844L8.72875 19.3438C8.73511 19.3546 8.74221 19.3651 8.75 19.375C8.89596 19.5686 9.08477 19.7258 9.30164 19.8342C9.51851 19.9427 9.75754 19.9994 10 20H10.9375C10.9914 20 11.0444 19.986 11.0913 19.9595C11.1382 19.9329 11.1775 19.8947 11.2053 19.8485C11.2331 19.8023 11.2484 19.7497 11.2498 19.6958C11.2513 19.6419 11.2387 19.5886 11.2134 19.5409L8.77281 14.95C8.76054 14.9274 8.74553 14.9064 8.72813 14.8875C8.58163 14.7264 8.40313 14.5976 8.20404 14.5093C8.00495 14.4211 7.78965 14.3753 7.57187 14.375H6.5625V13.75H16.875V19.6875C16.875 19.7704 16.9079 19.8499 16.9665 19.9085C17.0251 19.9671 17.1046 20 17.1875 20ZM9.95219 8.125H14.9434L14.4228 11.25H9.43156L9.95219 8.125ZM5.55656 11.6797C5.53091 11.6476 5.4992 11.621 5.46324 11.6012C5.42728 11.5814 5.38777 11.5688 5.34697 11.5643C5.30617 11.5598 5.26488 11.5633 5.22545 11.5748C5.18603 11.5862 5.14924 11.6053 5.11719 11.6309C5.08514 11.6566 5.05845 11.6883 5.03866 11.7243C5.01886 11.7602 5.00634 11.7997 5.00181 11.8405C4.99729 11.8813 5.00084 11.9226 5.01227 11.962C5.0237 12.0015 5.04279 12.0383 5.06844 12.0703L5.9375 13.1562V14.6875C5.9375 14.7704 5.97042 14.8499 6.02903 14.9085C6.08763 14.9671 6.16712 15 6.25 15H7.57187C7.69646 15.0003 7.81975 15.0253 7.93459 15.0736C8.04944 15.1218 8.15357 15.1924 8.24094 15.2813L10.4175 19.375H10C9.85757 19.3746 9.71708 19.342 9.58908 19.2795C9.46108 19.2171 9.34889 19.1264 9.26094 19.0144L7.77125 16.4062C7.74377 16.3587 7.70422 16.3191 7.6566 16.2917C7.60898 16.2643 7.55496 16.2499 7.5 16.25H5.3125C5.06386 16.25 4.8254 16.1512 4.64959 15.9754C4.47377 15.7996 4.375 15.5611 4.375 15.3125V11.5625C4.375 11.3139 4.47377 11.0754 4.64959 10.8996C4.8254 10.7238 5.06386 10.625 5.3125 10.625H5.79125L7.26 12.3875C7.31167 12.4496 7.38536 12.4892 7.46562 12.4981L9.93719 12.7728C9.88598 12.8784 9.8061 12.9674 9.70668 13.0297C9.60726 13.0919 9.49232 13.125 9.375 13.125H6.7125L5.55656 11.6797Z" fill="white"/>
<path d="M0.503786 8.05973L10 0.707857L14.4963 4.18754C14.5425 4.22329 14.5978 4.24538 14.6559 4.25129C14.714 4.25721 14.7726 4.24672 14.8251 4.22102C14.8775 4.19531 14.9217 4.15542 14.9526 4.10586C14.9836 4.05631 15 3.99908 15 3.94067V2.50004H16.875V5.87817C16.875 5.92589 16.886 5.97299 16.907 6.01584C16.928 6.05868 16.9585 6.09615 16.9963 6.12536L19.4963 8.05973C19.5618 8.11045 19.6449 8.13306 19.7271 8.12257C19.8093 8.11208 19.884 8.06935 19.9347 8.00379C19.9854 7.93824 20.008 7.85521 19.9976 7.77299C19.9871 7.69077 19.9443 7.61608 19.8788 7.56536L17.5 5.72473V2.18754C17.5 2.10466 17.4671 2.02518 17.4085 1.96657C17.3499 1.90797 17.2704 1.87504 17.1875 1.87504H14.6875C14.6047 1.87504 14.5252 1.90797 14.4666 1.96657C14.408 2.02518 14.375 2.10466 14.375 2.18754V3.30348L10.1913 0.0653569C10.1365 0.0229885 10.0693 0 10 0C9.93081 0 9.86354 0.0229885 9.80879 0.0653569L0.121286 7.56536C0.0557282 7.61608 0.0130045 7.69077 0.00251422 7.77299C-0.00797609 7.85521 0.0146262 7.93824 0.0653488 8.00379C0.116072 8.06935 0.19076 8.11208 0.272983 8.12257C0.355206 8.13306 0.438228 8.11045 0.503786 8.05973Z" fill="white"/>
<path d="M12.4999 17.5C12.4545 17.5 12.4097 17.5099 12.3685 17.529C12.3273 17.5481 12.2908 17.576 12.2615 17.6106C12.2321 17.6453 12.2107 17.6859 12.1987 17.7297C12.1866 17.7734 12.1843 17.8193 12.1918 17.8641L12.5043 19.7391C12.5165 19.812 12.5541 19.8782 12.6105 19.926C12.667 19.9738 12.7385 20 12.8124 20H14.6874C14.7613 20 14.8329 19.9738 14.8893 19.926C14.9457 19.8782 14.9833 19.812 14.9955 19.7391L15.308 17.8641C15.3155 17.8193 15.3132 17.7734 15.3011 17.7297C15.2891 17.6859 15.2677 17.6453 15.2384 17.6106C15.209 17.576 15.1725 17.5481 15.1313 17.529C15.0901 17.5099 15.0453 17.5 14.9999 17.5H14.0624V17.0422L14.8608 16.5109C14.8961 16.4886 14.9265 16.4595 14.9502 16.4253C14.974 16.3911 14.9907 16.3525 14.9994 16.3117C15.008 16.271 15.0084 16.2289 15.0006 16.1879C14.9927 16.147 14.9767 16.1081 14.9536 16.0734C14.9305 16.0388 14.9006 16.0091 14.8659 15.9861C14.8311 15.9632 14.7921 15.9474 14.7511 15.9397C14.7101 15.9321 14.6681 15.9327 14.6273 15.9415C14.5866 15.9504 14.5481 15.9673 14.514 15.9913L14.0624 16.2912V15.625C14.0624 15.5421 14.0295 15.4626 13.9709 15.404C13.9123 15.3454 13.8328 15.3125 13.7499 15.3125C13.667 15.3125 13.5875 15.3454 13.5289 15.404C13.4703 15.4626 13.4374 15.5421 13.4374 15.625V16.2912L12.9858 15.9903C12.9518 15.9663 12.9132 15.9494 12.8725 15.9406C12.8318 15.9317 12.7897 15.9311 12.7487 15.9388C12.7078 15.9464 12.6687 15.9622 12.634 15.9852C12.5992 16.0081 12.5693 16.0378 12.5462 16.0725C12.5231 16.1071 12.5071 16.1461 12.4992 16.187C12.4914 16.2279 12.4918 16.27 12.5004 16.3108C12.5091 16.3515 12.5258 16.3902 12.5496 16.4244C12.5734 16.4586 12.6038 16.4877 12.639 16.51L13.4374 17.0422V17.5H12.4999ZM14.4227 19.375H13.0771L12.869 18.125H14.6308L14.4227 19.375Z" fill="white"/>
</g>
<defs>
<clipPath id="clip0_787_74850">
<rect width="20" height="20" fill="white"/>
</clipPath>
</defs>
</svg>
