<svg width="24" height="24" viewBox="0 0 24 24" fill="none" xmlns="http://www.w3.org/2000/svg">
<path d="M15.1963 5.93148H17.559L17.5184 4.49226H15.521L17.3982 0.612609L15.2745 0.434896L13.4092 1.86473L14.0311 0.247797L11.8542 0L11.1403 2.02055L9.96701 0.456171L6.73947 0.344162L8.8751 4.49288L6.94722 4.43093V5.93085H8.80502C4.84288 8.24988 1.98828 14.3115 1.98828 17.5861C1.98828 21.691 6.47103 24 12 24C17.529 24 22.0117 21.691 22.0117 17.5861C22.0124 14.3115 19.1584 8.25051 15.1963 5.93148ZM12.8372 19.5553V20.9764H11.4713V19.6529C10.5377 19.6122 9.63161 19.3594 9.10224 19.0541L9.52023 17.4246C10.1053 17.7456 10.9281 18.0372 11.8336 18.0372C12.6276 18.0372 13.1714 17.7306 13.1714 17.1743C13.1714 16.6431 12.7259 16.3083 11.6947 15.961C10.2029 15.4598 9.18609 14.7621 9.18609 13.4117C9.18609 12.1852 10.0502 11.2228 11.5414 10.9312V9.60713H12.9073V10.8336C13.8403 10.8762 14.4685 11.0695 14.9278 11.2929L14.5236 12.8679C14.1613 12.7152 13.5199 12.3936 12.5169 12.3936C11.6108 12.3936 11.318 12.7834 11.318 13.1733C11.318 13.6338 11.806 13.9261 12.9906 14.3722C14.6481 14.9592 15.3177 15.7238 15.3177 16.9791C15.3183 18.2174 14.4397 19.2768 12.8372 19.5553Z" fill="#FF82AC"/>
</svg>
