<svg width="25" height="24" viewBox="0 0 25 24" fill="none" xmlns="http://www.w3.org/2000/svg">
<g clip-path="url(#clip0_1286_67236)">
<path d="M23.8381 13.8742H23.0074C23.0074 13.4805 23.0074 13.222 23.0074 12.837C23.0074 12.5759 22.7926 12.3642 22.5275 12.3642H22.2438C22.2775 11.9556 22.01 11.5703 21.5934 11.4648C21.2622 11.3809 19.1742 10.8521 18.8521 10.7705L19.7352 8.4919C19.9908 7.83209 19.6556 7.09259 18.9854 6.84045L16.9639 6.06982C16.5765 5.92212 16.1604 5.88439 15.7518 5.95826C14.1478 6.24818 11.5116 6.72476 11.207 6.77961C11.0056 6.81589 10.8237 6.92089 10.6931 7.07618L8.89867 9.21008V2.78295C8.89867 2.53179 8.73049 2.31082 8.48582 2.24047L4.62566 1.13047H14.6341V5.30351L15.7812 5.15586V0.56534C15.7812 0.253246 15.5244 0.000215055 15.2077 0.000215055C15.1264 0.000215055 0.610464 -0.00105057 0.566125 0.00255881C0.262413 0.0272151 0.0395285 0.278746 0.0395285 0.56534C0.0395285 0.703996 0.0368168 21.2274 0.0444762 21.2876C0.0736391 21.516 0.239292 21.698 0.452423 21.7594L8.1645 23.977C8.53192 24.0828 8.89871 23.81 8.89871 23.4345V11.7305C9.03163 11.6793 9.15404 11.5962 9.25152 11.4802L11.8321 8.41147C12.1462 8.35489 14.3544 7.95692 14.7093 7.89298L12.77 12.8974C12.77 12.8974 12.8391 12.7253 11.5468 17.0842L10.0428 19.9011V22.5699C10.4854 22.6763 10.9596 22.4772 11.1802 22.0639L13.3895 17.9261C13.421 17.867 13.4464 17.805 13.4654 17.741L14.6876 13.6189C14.7764 13.6523 14.7327 13.6359 14.963 13.7225C15.2707 14.1987 16.7855 16.5429 17.092 17.0172L15.5615 21.2642C15.3741 21.7843 15.6501 22.3557 16.178 22.5404C16.703 22.7241 17.2855 22.4541 17.4733 21.933L19.1693 17.2263C19.2713 16.9432 19.2408 16.6208 19.0691 16.3551L17.5807 14.0518C17.7976 13.4921 18.009 12.9465 18.2269 12.3841C19.0533 12.5934 19.5974 12.7312 19.5974 12.7312L19.5849 13.8743H18.7541C18.6462 13.8743 18.547 13.9099 18.4668 13.9691L19.7377 15.9357C20.0387 16.4015 20.1038 16.9671 19.9163 17.4875L19.7052 18.0734H23.8382C24.1031 18.0734 24.3179 17.8617 24.3179 17.6007V14.347C24.3179 14.0858 24.1031 13.8742 23.8381 13.8742ZM7.26397 14.858C7.26397 15.1701 7.00717 15.4231 6.69042 15.4231C6.37367 15.4231 6.11687 15.1701 6.11687 14.858V11.5957C6.11687 11.2836 6.37367 11.0306 6.69042 11.0306C7.00717 11.0306 7.26397 11.2836 7.26397 11.5957V14.858ZM22.0478 13.8742H22.0478H20.5445V13.3098H22.0478V13.8742Z" fill="#396AFF"/>
<path d="M15.024 15.2695L14.6345 16.5833V20.651H12.83L12.2266 21.7813H14.7197C14.6921 21.5211 14.7235 21.256 14.8151 21.0021L15.7817 18.3198V16.442L15.024 15.2695Z" fill="#396AFF"/>
<path d="M19.8348 2.37509C18.8432 2.00201 17.7323 2.49167 17.3537 3.46878C16.9717 4.45432 17.4822 5.54426 18.4637 5.9135C19.4463 6.28325 20.5634 5.80418 20.9448 4.81981C21.3234 3.8427 20.8265 2.74817 19.8348 2.37509Z" fill="#396AFF"/>
</g>
<defs>
<clipPath id="clip0_1286_67236">
<rect width="24.3579" height="24" fill="white"/>
</clipPath>
</defs>
</svg>
