<svg width="34" height="32" viewBox="0 0 34 32" fill="none" xmlns="http://www.w3.org/2000/svg">
<path d="M12.9647 8.49624C11.577 8.49624 10.4551 7.39078 10.4551 6.02351C10.4551 4.65624 11.577 3.55078 12.9647 3.55078C14.3523 3.55078 15.4743 4.65624 15.4743 6.02351C15.4743 7.39078 14.3523 8.49624 12.9647 8.49624Z" fill="#9333EA"/>
<path d="M17.8959 11.9012C17.5416 10.3303 16.4492 9.25391 14.8253 9.25391H11.1348C9.51089 9.25391 8.12323 10.4757 8.00513 12.1048L7.56226 17.283C7.53274 17.7775 7.88703 18.2139 8.41848 18.2721H8.5661C9.0385 18.2139 9.39279 17.8357 9.42232 17.3994L9.80614 12.5994C9.83567 12.4539 9.86519 12.163 10.1309 12.163C10.2195 12.163 10.3671 12.1921 10.3671 12.5412V27.3775C10.3966 27.9885 10.9281 28.4539 11.5481 28.4248C12.1091 28.3957 12.5815 27.9303 12.611 27.3775V18.9412C12.8472 18.9121 13.0834 18.9121 13.3491 18.9412V27.3485C13.3786 27.9594 13.9101 28.4248 14.5301 28.3957C15.0911 28.3666 15.5635 27.9012 15.593 27.3485V12.5121C15.593 12.163 15.7406 12.1339 15.8292 12.1339C16.0949 12.1339 16.154 12.5121 16.1835 12.6285L16.9216 16.2648C17.0102 16.7012 17.4235 17.0212 17.8959 17.0212C18.3978 16.9921 18.8112 16.5557 18.7817 16.0612C18.7817 16.003 18.7817 15.9448 18.7521 15.9157L17.8959 11.9012Z" fill="#9333EA"/>
<path d="M22.4124 18.4438C23.5639 18.4438 24.4792 17.542 24.4792 16.4075C24.4792 15.2729 23.5639 14.3711 22.4124 14.3711C21.261 14.3711 20.3457 15.2729 20.3457 16.4075C20.3457 17.542 21.261 18.4438 22.4124 18.4438Z" fill="#9333EA"/>
<path d="M25.6613 20.1055C25.4251 19.6691 25.0413 19.3491 24.5984 19.1745C24.3032 19.0582 24.008 19 23.6832 19.0291C23.1813 19.0291 22.1184 19.0291 21.646 18.9709C21.6164 18.9709 20.0812 18.9709 19.3726 17.6327C19.1954 17.2836 18.8411 17.1091 18.4573 17.1673C18.0144 17.2545 17.7487 17.6909 17.8373 18.1273C17.8373 18.1855 17.8668 18.2436 17.8963 18.3018C18.3392 19.32 19.2249 20.0764 20.3174 20.3673V27.5818C20.3174 28.0182 20.6126 28.3964 21.026 28.4836C21.4984 28.6 21.9707 28.28 22.0888 27.8145C22.1184 27.7564 22.1184 27.6691 22.1184 27.6109V23.6836H22.6498V27.5818C22.6498 28.0764 23.0632 28.4545 23.5356 28.4545C24.008 28.4545 24.4213 28.0473 24.4213 27.5818V21.0655C24.4508 20.9491 24.5689 20.9782 24.628 21.1527C24.7756 21.5309 24.8937 21.88 24.9232 22.9855C24.9527 23.3345 25.248 23.6255 25.6023 23.6255H25.6318C26.0156 23.5964 26.3109 23.2764 26.2814 22.8982C26.2814 21.88 26.2814 21.1818 25.6613 20.1055Z" fill="#9333EA"/>
</svg>
