<svg width="29" height="28" viewBox="0 0 29 28" fill="none" xmlns="http://www.w3.org/2000/svg">
<g clip-path="url(#clip0_1286_67365)">
<path d="M17.2849 0H14.8664C14.6882 0.000138785 14.5231 0.0923775 14.4315 0.243C13.8571 1.18358 13.1443 2.03501 12.3164 2.7695C13.129 2.92243 13.9544 2.9996 14.7816 3C16.7272 3 17.1794 0.9685 17.2849 0Z" fill="#EC4899"/>
<path d="M11.1048 8.3455C11.808 8.51349 12.4938 8.74549 13.1534 9.0385C13.5736 9.209 14.008 9.3855 14.4342 9.5255C15.0627 9.68043 15.7064 9.7681 16.3539 9.787C17.1527 9.8298 17.9475 9.92619 18.7329 10.0755C18.2418 6.71726 18.4061 3.2975 19.217 0H18.3082C18.1645 1.6115 17.314 4 14.7813 4C13.5826 4.00001 12.3889 3.84878 11.2291 3.55C10.9639 3.7102 10.6857 3.84866 10.3974 3.964C9.58791 4.27085 9.0755 5.0613 9.13334 5.914C9.20353 7.05335 9.99252 8.02645 11.1048 8.3455Z" fill="#EC4899"/>
<path d="M10.1244 20.35C10.3157 20.5075 10.5152 20.671 10.7217 20.843C10.9282 20.671 11.1277 20.5075 11.319 20.35C12.8454 19.095 13.7664 18.337 13.7664 17.379C13.791 17.0286 13.6696 16.6835 13.4302 16.4233C13.1908 16.163 12.8541 16.0102 12.4978 16C11.943 16.019 11.4396 16.3255 11.1743 16.806C11.0871 16.9727 10.913 17.0777 10.7227 17.0785H10.7186C10.5288 17.0777 10.3554 16.9725 10.269 16.806C10.0037 16.3256 9.50039 16.0191 8.94559 16C8.58928 16.0102 8.25257 16.163 8.01317 16.4233C7.77377 16.6835 7.65236 17.0286 7.67695 17.379C7.67695 18.337 8.59799 19.095 10.1244 20.35Z" fill="#EC4899"/>
<path d="M8.9298 23.8835C10.8677 24.8764 13.0657 25.2667 15.2334 25.003C15.4136 24.9832 15.5909 25.0596 15.6984 25.2034C15.8059 25.3473 15.8274 25.5367 15.7547 25.7004C15.6821 25.8641 15.5263 25.9772 15.3461 25.997C14.8793 26.0483 14.4101 26.074 13.9404 26.074C12.2068 26.0868 10.4919 25.72 8.91965 25C8.59544 25.7806 8.3777 26.6 8.27214 27.437C8.25375 27.5796 8.29856 27.7231 8.39512 27.8309C8.49168 27.9387 8.63064 28.0003 8.77655 28H21.6746C21.8264 28 21.9703 27.933 22.0667 27.8174C22.163 27.7018 22.2018 27.5498 22.1724 27.403C21.7705 25.469 20.8408 21.5565 19.4027 18.7235C18.8355 17.501 18.5578 16.1673 18.5907 14.8235C15.7663 14.2336 13.0377 13.2632 10.4821 11.9395C10.4396 11.9165 10.4007 11.8878 10.3664 11.854C9.76496 11.3238 8.99207 11.0212 8.18536 11H8.17775C6.17025 12.3845 5.14062 14.3965 5.14062 17C5.14062 20.9705 7.2014 22.9345 8.9298 23.8835ZM8.94655 15C9.6185 14.9991 10.2611 15.2713 10.7226 15.7525C11.1842 15.2713 11.8268 14.9991 12.4987 15C13.1238 15.011 13.7181 15.2693 14.1477 15.7169C14.5773 16.1644 14.806 16.7635 14.7823 17.379C14.7823 18.805 13.6659 19.725 11.97 21.118C11.6817 21.355 11.3752 21.6075 11.053 21.8795C10.8631 22.0395 10.5832 22.0395 10.3933 21.8795C10.0711 21.6075 9.76456 21.355 9.47633 21.118C7.7794 19.725 6.66299 18.805 6.66299 17.379C6.63931 16.7635 6.86802 16.1644 7.2976 15.7169C7.72718 15.2693 8.32147 15.011 8.94655 15Z" fill="#EC4899"/>
<path d="M22.5082 14.4585C23.1786 11.4085 23.0421 7.29 22.9502 4.524C22.9238 3.7265 22.901 3.034 22.901 2.5C22.8915 1.78055 22.6062 1.09126 22.1023 0.5705C21.7789 0.220825 21.3257 0.0150254 20.8458 0H20.2592C19.3833 3.39533 19.2333 6.93301 19.8187 10.3885C20.3033 10.5603 20.7603 10.8 21.1757 11.1C21.3999 11.2657 21.4453 11.5791 21.2771 11.8C21.109 12.0209 20.7909 12.0657 20.5667 11.9C19.364 11.011 17.725 10.8905 16.2787 10.784C15.5475 10.7627 14.8211 10.6588 14.1139 10.4745C13.6541 10.3245 13.2005 10.14 12.7666 9.963C12.1817 9.7034 11.5757 9.49282 10.955 9.3335C10.9113 9.33017 10.8682 9.32161 10.8266 9.308C10.3572 9.19927 9.86434 9.24837 9.42652 9.4475C9.15862 9.57297 8.94206 9.78458 8.8125 10.0475C9.63274 10.186 10.3976 10.5468 11.0215 11.0895C15.6246 13.55 20.9727 14.289 22.5082 14.4585Z" fill="#EC4899"/>
</g>
<defs>
<clipPath id="clip0_1286_67365">
<rect width="28.4175" height="28" fill="white" transform="translate(0.0664062)"/>
</clipPath>
</defs>
</svg>
