<svg width="29" height="28" viewBox="0 0 29 28" fill="none" xmlns="http://www.w3.org/2000/svg">
<path d="M23.9261 10.9513C23.8112 10.9514 23.6974 10.9288 23.5912 10.8848C23.4851 10.8407 23.3888 10.7761 23.3077 10.6946L20.8332 8.21893C20.7497 8.13818 20.6831 8.04159 20.6373 7.93482C20.5915 7.82804 20.5674 7.71321 20.5664 7.59703C20.5655 7.48085 20.5877 7.36564 20.6317 7.25813C20.6758 7.15062 20.7408 7.05295 20.823 6.97083C20.9052 6.88872 21.0029 6.82379 21.1105 6.77985C21.218 6.7359 21.3332 6.71382 21.4494 6.71488C21.5656 6.71594 21.6804 6.74014 21.7871 6.78604C21.8939 6.83195 21.9904 6.89866 22.0711 6.98226L24.5456 9.45676C24.6677 9.57936 24.7508 9.73537 24.7843 9.90512C24.8179 10.0749 24.8005 10.2508 24.7342 10.4106C24.6679 10.5705 24.5558 10.7071 24.412 10.8033C24.2682 10.8995 24.0991 10.951 23.9261 10.9513Z" fill="#1565C0"/>
<path d="M20.6262 11.7752C20.4532 11.7751 20.2842 11.7237 20.1405 11.6275C19.9967 11.5314 19.8847 11.3948 19.8185 11.235C19.7524 11.0752 19.735 10.8994 19.7687 10.7297C19.8024 10.5601 19.8856 10.4042 20.0079 10.2819L22.0705 8.21922C22.2364 8.06466 22.4558 7.98051 22.6825 7.98451C22.9091 7.98851 23.1254 8.08034 23.2857 8.24066C23.4461 8.40097 23.5379 8.61725 23.5419 8.84394C23.5459 9.07062 23.4617 9.29001 23.3072 9.45588L21.2457 11.5185C21.1645 11.6002 21.068 11.6649 20.9616 11.7089C20.8553 11.753 20.7413 11.7755 20.6262 11.7752Z" fill="#1565C0"/>
<path d="M8.19401 17.793H3.52734C3.29528 17.793 3.07272 17.7008 2.90863 17.5367C2.74453 17.3726 2.65234 17.15 2.65234 16.918C2.65234 16.6859 2.74453 16.4633 2.90863 16.2993C3.07272 16.1352 3.29528 16.043 3.52734 16.043H8.19401C8.42607 16.043 8.64863 16.1352 8.81273 16.2993C8.97682 16.4633 9.06901 16.6859 9.06901 16.918C9.06901 17.15 8.97682 17.3726 8.81273 17.5367C8.64863 17.7008 8.42607 17.793 8.19401 17.793Z" fill="#1565C0"/>
<path d="M9.36133 14.293H2.36133C2.12926 14.293 1.9067 14.2008 1.74261 14.0367C1.57852 13.8726 1.48633 13.65 1.48633 13.418C1.48633 13.1859 1.57852 12.9633 1.74261 12.7993C1.9067 12.6352 2.12926 12.543 2.36133 12.543H9.36133C9.59339 12.543 9.81595 12.6352 9.98005 12.7993C10.1441 12.9633 10.2363 13.1859 10.2363 13.418C10.2363 13.65 10.1441 13.8726 9.98005 14.0367C9.81595 14.2008 9.59339 14.293 9.36133 14.293Z" fill="#1565C0"/>
<path d="M9.36133 21.293H2.36133C2.12926 21.293 1.9067 21.2008 1.74261 21.0367C1.57852 20.8726 1.48633 20.65 1.48633 20.418C1.48633 20.1859 1.57852 19.9633 1.74261 19.7992C1.9067 19.6352 2.12926 19.543 2.36133 19.543H9.36133C9.59339 19.543 9.81595 19.6352 9.98005 19.7992C10.1441 19.9633 10.2363 20.1859 10.2363 20.418C10.2363 20.65 10.1441 20.8726 9.98005 21.0367C9.81595 21.2008 9.59339 21.293 9.36133 21.293Z" fill="#1565C0"/>
<path d="M16.3607 1.45703H11.694C10.5664 1.45703 9.65234 2.37112 9.65234 3.4987V3.79036C9.65234 4.91795 10.5664 5.83203 11.694 5.83203H16.3607C17.4883 5.83203 18.4023 4.91795 18.4023 3.79036V3.4987C18.4023 2.37112 17.4883 1.45703 16.3607 1.45703Z" fill="#1565C0"/>
<path d="M14.028 9.04036C13.384 9.04036 12.8613 8.64836 12.8613 8.16536V5.83203C12.8613 5.34903 13.384 4.95703 14.028 4.95703C14.672 4.95703 15.1947 5.34903 15.1947 5.83203V8.16536C15.1947 8.64836 14.672 9.04036 14.028 9.04036Z" fill="#1565C0"/>
<path d="M14.0267 10.2072C12.6999 10.2072 11.4029 10.6006 10.2997 11.3378C9.19657 12.0749 8.33674 13.1226 7.829 14.3484C7.32127 15.5742 7.18842 16.923 7.44726 18.2243C7.7061 19.5256 8.34501 20.7209 9.28319 21.659C10.2214 22.5972 11.4167 23.2361 12.718 23.495C14.0193 23.7538 15.3681 23.621 16.5939 23.1132C17.8197 22.6055 18.8674 21.7457 19.6045 20.6425C20.3416 19.5393 20.735 18.2423 20.735 16.9155C20.7414 16.0328 20.5722 15.1576 20.2373 14.3409C19.9025 13.5241 19.4086 12.782 18.7844 12.1578C18.1602 11.5336 17.4181 11.0398 16.6014 10.7049C15.7846 10.37 14.9094 10.2008 14.0267 10.2072ZM16.9329 15.5517L15.4664 16.8245C15.4664 16.856 15.485 16.8829 15.485 16.9155C15.485 17.204 15.3995 17.4859 15.2393 17.7257C15.079 17.9656 14.8513 18.1525 14.5848 18.2629C14.3183 18.3732 14.0251 18.4021 13.7422 18.3458C13.4593 18.2896 13.1994 18.1507 12.9955 17.9467C12.7915 17.7428 12.6527 17.4829 12.5964 17.2C12.5401 16.9172 12.569 16.6239 12.6794 16.3575C12.7897 16.091 12.9767 15.8632 13.2165 15.703C13.4563 15.5427 13.7383 15.4572 14.0267 15.4572C14.1218 15.4661 14.2157 15.4853 14.3067 15.5144L15.7872 14.231C15.8734 14.1518 15.9746 14.0906 16.0848 14.0511C16.1951 14.0116 16.3121 13.9947 16.429 14.0013C16.5459 14.0079 16.6603 14.0379 16.7654 14.0895C16.8705 14.1412 16.9642 14.2134 17.0409 14.3018C17.1176 14.3903 17.1757 14.4933 17.2119 14.6047C17.2481 14.716 17.2615 14.8335 17.2514 14.9502C17.2414 15.0669 17.208 15.1803 17.1533 15.2838C17.0985 15.3874 17.0236 15.4777 16.9329 15.5517Z" fill="#1565C0"/>
<path d="M14.028 26.543C12.0606 26.5467 10.1399 25.9442 8.52714 24.8175C8.3367 24.6847 8.20678 24.4818 8.16598 24.2532C8.12517 24.0247 8.17682 23.7893 8.30956 23.5989C8.4423 23.4084 8.64526 23.2785 8.87379 23.2377C9.10232 23.1969 9.3377 23.2486 9.52814 23.3813C10.709 24.2033 12.0925 24.6861 13.5284 24.7772C14.9644 24.8683 16.3978 24.5643 17.6731 23.8981C18.9484 23.232 20.0168 22.2292 20.7624 20.9986C21.508 19.7681 21.9021 18.3568 21.9021 16.918C21.9021 15.4792 21.508 14.0679 20.7624 12.8373C20.0168 11.6067 18.9484 10.6039 17.6731 9.93781C16.3978 9.27168 14.9644 8.96766 13.5284 9.05878C12.0925 9.14989 10.709 9.63265 9.52814 10.4546C9.43384 10.5204 9.32752 10.5669 9.21525 10.5915C9.10297 10.6161 8.98695 10.6184 8.87379 10.5982C8.76063 10.578 8.65256 10.5357 8.55575 10.4738C8.45894 10.4118 8.37529 10.3314 8.30956 10.2371C8.24383 10.1428 8.19732 10.0364 8.17269 9.92416C8.14805 9.81188 8.14577 9.69585 8.16598 9.5827C8.20678 9.35417 8.3367 9.15121 8.52714 9.01847C9.76696 8.15542 11.1925 7.59631 12.6885 7.38637C14.1845 7.17643 15.7088 7.32156 17.1383 7.81002C18.5678 8.29848 19.8622 9.11655 20.9169 10.198C21.9716 11.2796 22.7569 12.5941 23.2093 14.0354C23.6617 15.4767 23.7685 17.0043 23.5211 18.4945C23.2737 19.9847 22.679 21.3958 21.785 22.6135C20.8911 23.8313 19.7231 24.8215 18.3756 25.5042C17.028 26.1868 15.5386 26.5427 14.028 26.543Z" fill="#1565C0"/>
</svg>
