<svg width="31" height="30" viewBox="0 0 31 30" fill="none" xmlns="http://www.w3.org/2000/svg">
<g clip-path="url(#clip0_1286_67352)">
<path d="M21.5149 8.85283C20.361 8.34656 19.8421 7.01449 20.3559 5.87757C20.8698 4.74065 22.2217 4.2294 23.3756 4.73567C24.5294 5.24193 25.0483 6.574 24.5345 7.71092C24.0207 8.84785 22.6688 9.35909 21.5149 8.85283Z" fill="#059669"/>
<path d="M17.1219 17.4118L18.2754 17.9482L16.6873 21.0517C16.5999 21.2227 16.4737 21.3716 16.3187 21.4869L11.3191 25.2062C11.0901 25.3767 10.8214 25.459 10.5549 25.459C10.1702 25.459 9.79008 25.2874 9.54045 24.9616C9.1178 24.4101 9.22892 23.6254 9.78868 23.2091L14.5525 19.6651L16.0402 16.7578C16.3015 17.0508 16.6605 17.2684 17.1219 17.4118Z" fill="#059669"/>
<path d="M0.917183 21.8263L5.21861 15.8537C5.44497 15.5394 5.89116 15.4647 6.21014 15.6878L8.55159 17.3249C8.64052 17.387 8.70981 17.4664 8.75965 17.5549L11.155 14.2289C11.0407 14.1603 10.9416 14.064 10.871 13.9411C10.6496 13.5564 10.7868 13.0677 11.1774 12.8497L17.4836 9.32918L18.2666 8.89207C18.9858 8.38618 19.8135 8.36217 20.3824 8.63057C21.0968 8.96787 21.2792 9.98303 20.9712 10.8487L20.181 9.81747C19.9814 9.557 19.6767 9.40763 19.3452 9.40763C19.1163 9.40763 18.8985 9.47963 18.7153 9.6158C18.4922 9.78174 18.3481 10.0234 18.3095 10.2961C18.2709 10.5689 18.3423 10.8402 18.5107 11.0599L20.039 13.0546C19.7447 13.8104 19.4762 14.6209 19.3388 15.4215L22.25 16.7753C22.1103 17.0631 22.0318 17.3851 22.0318 17.7248V18.8609C22.0318 19.3921 22.2328 19.7583 22.6291 19.9492C22.6846 19.976 22.7439 19.9974 22.8047 20.0167L19.1625 23.2973C18.9189 23.5167 18.6121 23.625 18.3061 23.625C17.9619 23.625 17.6189 23.488 17.3684 23.218C16.8952 22.708 16.9312 21.9165 17.4489 21.4502L20.4803 18.7197L17.2078 17.1978C16.4476 16.9654 15.7363 16.4645 15.7506 15.1201C15.8717 13.7434 16.076 12.7371 16.4706 11.7355L16.158 11.91L11.9787 14.2431C11.8522 14.3138 11.7146 14.3473 11.5789 14.3473C11.5754 14.3473 11.572 14.3467 11.5685 14.3467L7.0542 20.6149L4.666 23.9309C4.4943 23.7939 4.27597 23.7113 4.03825 23.7113C3.65154 23.7113 3.31617 23.9294 3.15021 24.2469L1.25757 22.9236L0.859915 23.4801L0.403025 23.1632L0.854984 22.5306C0.749622 22.309 0.763968 22.0391 0.917183 21.8263Z" fill="#059669"/>
<path d="M4.0382 24.0117C4.4216 24.0117 4.73242 24.318 4.73242 24.6958C4.73242 25.0735 4.4216 25.3798 4.0382 25.3798C3.65479 25.3798 3.34398 25.0735 3.34398 24.6958C3.34398 24.318 3.65478 24.0117 4.0382 24.0117Z" fill="#059669"/>
<path d="M22.3358 18.8605V17.7245C22.3358 16.6757 23.2067 15.8176 24.271 15.8176H24.7591C24.794 15.6782 24.8791 15.5491 25.0019 15.4346L25.4003 15.5159C25.246 15.6063 25.136 15.7109 25.0824 15.8176H28.1031C27.9995 15.6113 27.6879 15.4126 27.2445 15.3105C27.31 15.2293 27.3636 15.1382 27.4022 15.0391C27.9487 15.1829 28.3392 15.4697 28.4264 15.8176H28.9144C29.9788 15.8176 30.8496 16.6757 30.8496 17.7244V18.8605C30.8496 19.9092 29.9788 19.8217 28.9144 19.8217H24.271C23.2067 19.8217 22.3358 19.9092 22.3358 18.8605ZM28.4278 16.2905H28.123V16.5658H25.0625V16.2905H24.7577V16.5658H24.527V16.7994H28.6584V16.5658H28.4278L28.4278 16.2905ZM28.4278 18.7347V17.058H28.123V18.7347H28.4278ZM25.0625 18.7347V17.058H24.7577V18.7347H25.0625Z" fill="#059669"/>
<path d="M26.4262 15.4721C26.3716 15.4721 26.3161 15.4667 26.2606 15.4554L21.7139 14.5278C21.5209 14.4884 21.3489 14.3812 21.2301 14.2261L18.6968 10.9201C18.4263 10.5671 18.4975 10.0649 18.8557 9.79843C19.214 9.532 19.7236 9.60205 19.9941 9.95504L22.3431 13.0206L26.5902 13.887C27.0297 13.9767 27.3122 14.4004 27.2212 14.8336C27.1418 15.2119 26.8035 15.4721 26.4262 15.4721Z" fill="#059669"/>
<path d="M15.0566 8.08984H7.26317V8.31657H15.0566V8.08984Z" fill="#059669"/>
<path d="M13.4336 9.44922H5.64012V9.67595H13.4336V9.44922Z" fill="#059669"/>
<path d="M11.9727 8.76953H0.789913V8.99626H11.9727V8.76953Z" fill="#059669"/>
</g>
<defs>
<clipPath id="clip0_1286_67352">
<rect width="30.4474" height="30" fill="white" transform="matrix(-1 0 0 1 30.8496 0)"/>
</clipPath>
</defs>
</svg>
