<svg width="25" height="24" viewBox="0 0 25 24" fill="none" xmlns="http://www.w3.org/2000/svg">
<path d="M22.7184 14.1343L19.728 11.1885C19.6452 11.1078 19.5345 11.0625 19.4188 11.0625C19.3031 11.0625 19.1921 11.1078 19.11 11.1885L18.5887 11.7023C18.4186 11.8706 18.4186 12.1427 18.5887 12.3109L20.7483 14.4385L18.5887 16.5676C18.4186 16.7358 18.4181 17.008 18.5887 17.1761L19.11 17.6902C19.1921 17.7708 19.3031 17.8161 19.4188 17.8161C19.5345 17.8161 19.6452 17.7708 19.728 17.6902L22.7184 14.7428C22.8008 14.6621 22.8467 14.5525 22.8467 14.4385C22.8467 14.3245 22.8007 14.2148 22.7184 14.1343Z" fill="#84CC16"/>
<path d="M15.2102 8.48135L13.3502 9.1783L11.9638 7.36044V7.08359C11.9638 5.98051 11.0559 5.08594 9.93626 5.08594H9.06982C8.39827 5.08594 7.8066 5.41188 7.43749 5.90837L4.88816 7.18132C4.69092 7.2802 4.53197 7.44028 4.43587 7.6368L2.95834 10.6671C2.71781 11.1613 2.92919 11.754 3.43053 11.9916C3.57031 12.0579 3.71933 12.0897 3.86542 12.0897C4.24073 12.0897 4.60093 11.8823 4.77416 11.5268L6.10385 8.79959L7.04272 8.331V14.2959L7.28476 17.2596L3.10383 19.4864C2.45797 19.8306 2.21705 20.6251 2.56669 21.2616C2.80633 21.7 3.26454 21.9488 3.73635 21.9488C3.95066 21.9488 4.16698 21.898 4.36759 21.7911L9.33572 19.1448C9.81184 18.8914 10.085 18.3786 10.0253 17.8487L9.80015 15.8412L11.2415 18.3983V22.6896C11.2415 23.4128 11.8374 23.9993 12.5713 23.9993C13.3054 23.9993 13.9007 23.4128 13.9007 22.6896V18.0588C13.9007 17.8362 13.8426 17.6172 13.7331 17.4227L11.9638 14.2958V10.6635L12.1951 10.967C12.3896 11.2221 12.6898 11.3635 12.9999 11.3635C13.1205 11.3635 13.2415 11.3426 13.3581 11.2988L15.9258 10.3364C16.446 10.1413 16.7072 9.5681 16.5088 9.05614C16.3117 8.54419 15.7307 8.28488 15.2102 8.48135Z" fill="#84CC16"/>
<path d="M9.504 4.64007C10.8039 4.64007 11.8582 3.60171 11.8582 2.32013C11.8582 1.03837 10.8039 0 9.504 0C8.20283 0 7.14844 1.03837 7.14844 2.32018C7.14844 3.60175 8.20278 4.64007 9.504 4.64007Z" fill="#84CC16"/>
</svg>
